<?xml version="1.0" encoding="utf-8"?>
<!-- Generator: Adobe Illustrator 15.0.0, SVG Export Plug-In . SVG Version: 6.00 Build 0)  -->
<!DOCTYPE svg PUBLIC "-//W3C//DTD SVG 1.1//EN" "http://www.w3.org/Graphics/SVG/1.1/DTD/svg11.dtd">
<svg version="1.1" id="Layer_1" xmlns="http://www.w3.org/2000/svg" xmlns:xlink="http://www.w3.org/1999/xlink" x="0px" y="0px"
	 width="300px" height="300px" viewBox="-1.75 -1.75 300 300" enable-background="new -1.75 -1.75 300 300" xml:space="preserve">
<g>
	<path fill="#eeeeee" d="M183.861-1.75c1.149,0,2.298,0,3.447,0c5.737,1.708,11.668,4.035,18.22,6.401c6.286,2.271,14.59,4.215,16.742,8.864
		c4.872,10.521-5.037,23.447-2.462,33.977c1.341,5.481,7.646,9.31,11.326,12.803c3.348,3.178,8.208,9.879,12.803,10.833
		c12.284,2.551,21.999-8.01,33.485-4.924c6.133,1.647,9.306,11.417,11.818,16.742c2.677,5.674,8.118,14.158,7.387,21.174
		c-1.307,12.528-23.398,14.555-27.083,26.099c-2.368,7.418-1.43,24,0.985,30.038c2.006,5.013,9.019,7.995,14.772,11.326
		c4.3,2.489,12.85,6.324,13.788,11.818c1.127,6.601-3.898,15.55-6.401,22.159c-2.876,7.591-5.363,14.682-10.833,17.728
		c-11.942,1.263-20.677-5.329-31.022-3.939c-6.08,0.816-10.396,7.934-13.788,11.326c-3.925,3.925-10.119,8.858-10.833,14.28
		c-1.505,11.421,8.167,21.498,5.417,32.007c-1.598,6.106-13.369,9.342-17.727,11.326c-5.869,2.671-13.479,8.496-21.174,7.386
		c-11.084-1.6-15.1-23.637-25.113-27.083c-4.888-1.682-10.958-0.22-15.758,0c-4.729,0.217-10.698-0.174-14.772,1.478
		c-9.146,3.708-13.346,27.089-23.636,28.561c-6.297,0.9-16.174-4.786-21.667-6.894c-5.592-2.146-16.217-4.971-17.727-10.833
		c-2.37-9.203,5.872-22.76,3.447-32.5c-1.202-4.829-7.372-9.587-10.833-12.803c-3.459-3.214-7.958-9.059-13.295-9.849
		c-10.458-1.546-22.281,8.076-32.5,5.417c-6.864-1.787-8.888-10.788-11.818-17.235c-2.706-5.952-8.111-14.721-7.386-21.174
		c1.209-10.772,22.276-13.327,26.591-24.622c2.281-5.973,1.782-24.637-0.493-30.53c-4.418-11.452-24.524-11.179-29.053-24.129
		c0-0.82,0-1.642,0-2.462c2.132-6.137,3.723-11.803,6.401-19.205c2.03-5.609,4.404-13.891,8.864-16.25
		c9.299-4.919,23.33,4.543,33.977,2.462c4.417-0.864,9.018-7.203,12.803-11.326c3.886-4.234,9.901-7.886,10.833-13.295
		c1.821-10.571-8.895-23.969-4.924-34.47c1.814-4.796,12.982-8.849,17.235-10.833c5.622-2.624,13.841-8.337,21.667-6.894
		c4.835,0.892,8.401,8.481,11.818,13.295c3.514,4.952,7.835,11.885,12.311,13.295c7.218,2.275,25.309,1.222,30.53-0.985
		C169.775,22.773,173.521,0.396,183.861-1.75z M93.748,116.431c-12.15,20.661-9.337,50.578,2.462,67.955
		c11.817,17.404,35.363,29.707,59.583,27.576c27.252-2.399,50.903-23.2,56.136-51.212c1.395-7.461,1.001-19.613-0.493-26.099
		c-6.712-29.15-33.307-53.408-70.416-49.242C119.316,87.845,101.458,103.321,93.748,116.431z"/>
</g>
</svg>
