<?xml version="1.0" encoding="utf-8"?>
<!-- Generator: Adobe Illustrator 15.0.0, SVG Export Plug-In . SVG Version: 6.00 Build 0)  -->
<!DOCTYPE svg PUBLIC "-//W3C//DTD SVG 1.1//EN" "http://www.w3.org/Graphics/SVG/1.1/DTD/svg11.dtd">
<svg version="1.1" id="Layer_1" xmlns="http://www.w3.org/2000/svg" xmlns:xlink="http://www.w3.org/1999/xlink" x="0px" y="0px"
	 width="1920px" height="1920px" viewBox="0 0 1920 1920" enable-background="new 0 0 1920 1920" xml:space="preserve">
<g>
	<path fill="#eeeeee" fill-rule="evenodd" clip-rule="evenodd" d="M1184.205,1.63c7.339,0,14.676,0,22.008,0
		c36.627,10.902,74.495,25.76,116.322,40.87c40.134,14.496,93.149,26.91,106.892,56.589c31.106,67.176-32.157,149.696-15.72,216.927
		c8.56,34.993,48.816,59.44,72.31,81.741c21.374,20.288,52.402,63.072,81.74,69.165c78.424,16.284,140.449-51.14,213.782-31.438
		c39.157,10.518,59.415,72.889,75.453,106.891c17.089,36.228,51.83,90.389,47.158,135.186
		c-8.346,79.981-149.383,92.922-172.912,166.625c-15.118,47.364-9.131,153.229,6.287,191.775
		c12.809,32.004,57.578,51.042,94.316,72.31c27.453,15.891,82.041,40.376,88.027,75.456c7.197,42.141-24.887,99.276-40.869,141.473
		c-18.36,48.466-34.24,93.738-69.166,113.18c-76.244,8.062-132.012-34.024-198.063-25.151c-38.818,5.213-66.371,50.652-88.027,72.31
		c-25.06,25.059-64.604,56.553-69.166,91.172c-9.609,72.916,52.144,137.249,34.583,204.35
		c-10.205,38.985-85.357,59.643-113.179,72.311c-37.469,17.058-86.052,54.242-135.187,47.156
		c-70.768-10.211-96.403-150.91-160.337-172.912c-31.208-10.739-69.963-1.406-100.604,0c-30.197,1.383-68.302-1.11-94.314,9.432
		c-58.395,23.672-85.207,172.949-150.905,182.344c-40.203,5.749-103.266-30.555-138.33-44.014
		c-35.702-13.704-103.54-31.739-113.179-69.164c-15.13-58.752,37.487-145.307,22.007-207.496
		c-7.674-30.83-47.066-61.207-69.165-81.74c-22.083-20.52-50.805-57.835-84.884-62.877c-66.769-9.873-142.254,51.562-207.495,34.582
		c-43.822-11.407-56.744-68.875-75.452-110.034c-17.273-38.003-51.785-93.984-47.158-135.187
		c7.723-68.777,142.224-85.087,169.769-157.195c14.566-38.135,11.375-157.292-3.145-194.92
		C159.394,818.233,31.03,819.977,2.115,737.293c0-5.239,0-10.48,0-15.72c13.613-39.181,23.771-75.356,40.87-122.61
		c12.958-35.809,28.115-88.685,56.59-103.747c59.371-31.408,148.951,29.009,216.926,15.719
		c28.203-5.514,57.576-45.983,81.741-72.309c24.815-27.033,63.215-50.348,69.165-84.884c11.628-67.489-56.792-153.027-31.438-220.07
		c11.579-30.621,82.885-56.496,110.035-69.165c35.894-16.75,88.369-53.227,138.33-44.014c30.872,5.692,53.639,54.148,75.452,84.884
		c22.437,31.614,50.023,75.88,78.597,84.885c46.085,14.524,161.582,7.804,194.917-6.288
		C1094.273,158.198,1118.19,15.333,1184.205,1.63z M608.88,756.157c-77.574,131.905-59.612,322.912,15.72,433.856
		c75.448,111.115,225.778,189.663,380.406,176.057c173.993-15.314,324.99-148.118,358.399-326.965
		c8.904-47.635,6.393-125.219-3.144-166.625c-42.854-186.111-212.652-340.984-449.571-314.386
		C772.121,573.65,658.106,672.456,608.88,756.157z"/>
</g>
</svg>
